<svg width="25" height="18" viewBox="0 0 25 18" fill="none" xmlns="http://www.w3.org/2000/svg">
<path d="M13.3106 9.78934L9.55815 16.2161L5.80572 9.78934H13.3106ZM14.3159 9.21494H4.79639L9.55815 17.3528L14.3159 9.21494Z" fill="#263238"/>
<path d="M19.8348 1.79593L23.5872 8.22267H16.0823L19.8348 1.79593ZM19.8348 0.647156L15.073 8.78501H24.5966L19.8348 0.647156Z" fill="#263238"/>
<path d="M0.233887 0.647156L4.22647 7.84511L8.5894 0.827898L0.233887 0.647156Z" fill="#4CAF4F"/>
<path d="M9.55813 1.27771L13.7461 8.4355H5.36206L9.55813 1.27771Z" fill="#4CAF4F"/>
<path d="M14.8245 9.9982L19.0165 17.3528H10.4331L14.6943 9.9982H14.8245Z" fill="#4CAF4F"/>
<path d="M15.7322 9.55234L19.8346 16.7945L23.9941 9.55234H15.7322Z" fill="#4CAF4F"/>
</svg>
